<svg width="22" height="22" viewBox="0 0 22 22" fill="none" xmlns="http://www.w3.org/2000/svg">
<path d="M16.9982 11.8041C16.9864 12.0975 17.3627 12.2851 17.5703 12.0775L19.9366 9.7109C22.1555 7.49266 22.1555 3.88246 19.9366 1.66422C17.718 -0.55474 14.1078 -0.55474 11.8892 1.66422L7.49972 6.05343C5.28086 8.27167 5.28086 11.8819 7.49972 14.1001C7.59833 14.1988 7.69975 14.2929 7.8037 14.3827C8.22266 14.7442 8.84077 14.6613 9.23209 14.2699L9.91421 13.5878C10.3521 13.1499 10.1326 12.3433 9.69458 11.9056C8.68607 10.8972 8.68607 9.25611 9.69458 8.24791L14.0841 3.8587C15.0926 2.85026 16.7337 2.85026 17.742 3.8587C18.7505 4.86715 18.7505 6.50797 17.742 7.51641L17.0249 8.23357C16.679 8.57958 16.5873 9.09857 16.7246 9.56821C16.9373 10.296 17.0284 11.052 16.9982 11.8041Z" fill="#0A1C1E"/>
<path d="M4.60259 9.79675C4.6144 9.50335 4.23812 9.31568 4.03048 9.52332L1.66432 11.8895C-0.554775 14.108 -0.554775 17.7179 1.66432 19.9364C3.8827 22.1552 7.49312 22.1552 9.71174 19.9364L14.101 15.5472C16.3198 13.3287 16.3196 9.71879 14.101 7.50055C14.0025 7.40189 13.9011 7.30774 13.7972 7.21804C13.3783 6.85639 12.7602 6.93938 12.3688 7.33071L11.6867 8.01288C11.2487 8.45093 11.4682 9.25716 11.9064 9.69503C12.9149 10.7035 12.9149 12.3443 11.9064 13.3527L7.51664 17.7419C6.50814 18.7504 4.86721 18.7504 3.8587 17.7419C2.8502 16.7335 2.8502 15.0927 3.8587 14.0842L4.57569 13.3674C4.92183 13.0214 5.01349 12.5022 4.87614 12.0324C4.6634 11.3047 4.57233 10.5488 4.60259 9.79675Z" fill="#0A1C1E"/>
</svg>
