<svg width="18" height="18" viewBox="0 0 18 18" fill="none" xmlns="http://www.w3.org/2000/svg">
<path d="M17.007 10.3392H3.83914C4.35215 12.9686 6.21705 14.5038 8.70429 14.5038C10.79 14.5038 12.1061 13.773 12.8378 12.349L15.9158 13.9494C14.4903 16.4402 11.7949 17.8641 8.74214 17.8641C3.62259 17.8641 0 14.2098 0 8.94885C0 3.68791 3.58263 0 8.70429 0C13.3865 0 17.0427 3.83702 17.0427 8.95095C17.0427 9.4991 17.0428 9.79102 17.007 10.3392ZM3.83914 7.41572H13.2394C13.0207 5.22314 11.1537 3.36028 8.70429 3.36028C6.25489 3.36028 4.35215 4.96902 3.83914 7.41572Z" fill="#F5F3F3"/>
</svg>
