<svg width="27" height="27" viewBox="0 0 27 27" fill="none" xmlns="http://www.w3.org/2000/svg">
<path d="M17.6461 26.8359L12.9205 19.7883L17.781 10.3299H17.7716C15.4159 10.3299 13.2813 11.6387 12.1991 13.7448L7.33857 23.2063H4.72717L0 16.1587L5.66978 5.12153C7.29308 1.96241 10.4958 0 14.0294 0H16.3114C18.5197 0 20.5226 1.13356 21.6707 3.03124C22.5239 4.44266 22.7874 6.08458 22.4486 7.6444C23.661 8.14487 24.7008 9.0274 25.4113 10.2036C26.5594 12.1013 26.6394 14.4142 25.6246 16.3876L20.2575 26.8359H17.6461ZM16.5624 19.5752L18.7675 22.8637L22.8391 14.9383C23.3457 13.9516 23.3065 12.7959 22.7325 11.8471C22.367 11.2424 21.8291 10.794 21.2017 10.5478L16.5624 19.5767V19.5752ZM3.64184 15.9456L5.84701 19.2341L9.412 12.2939C11.0353 9.13476 14.238 7.17235 17.7716 7.17235H19.3337C19.5706 6.3356 19.4545 5.43728 18.9934 4.67316C18.4193 3.72432 17.4171 3.15754 16.3145 3.15754H14.0325C11.6768 3.15754 9.54218 4.46634 8.45998 6.57242L3.64497 15.9456H3.64184Z" fill="#F5F3F3"/>
</svg>
